<svg xmlns="http://www.w3.org/2000/svg" xmlns:xlink="http://www.w3.org/1999/xlink" style="display:none">
<symbol id='brand' viewBox='0 0 20 20'><title id="icon-brand-title">Brand</title>
<g>
	<path d="M17.559,6.621c-0.277,0-0.508,0.227-0.508,0.509v3.087L8.496,18.77l-6.252-6.252l8.676-8.68h3.01
		c0.287,0,0.52-0.226,0.52-0.509c0-0.282-0.232-0.508-0.52-0.508h-3.223c-0.125,0-0.26,0.051-0.355,0.148l-9.195,9.183
		c-0.086,0.098-0.143,0.23-0.143,0.366s0.057,0.26,0.143,0.355l6.984,6.975C8.24,19.945,8.363,20,8.496,20
		c0.135,0,0.258-0.055,0.367-0.152l9.051-9.058c0.098-0.097,0.152-0.225,0.152-0.361V7.129C18.066,6.847,17.836,6.621,17.559,6.621z
		"/>
	<path d="M11.137,7.862c-0.197-0.197-0.516-0.197-0.723,0l-4.375,4.38c-0.197,0.197-0.197,0.515,0,0.712
		c0.1,0.108,0.232,0.152,0.365,0.152c0.125,0,0.258-0.044,0.357-0.152l4.375-4.37C11.334,8.387,11.334,8.064,11.137,7.862z"/>
	<path d="M8.596,15.253c0.135,0,0.268-0.055,0.367-0.152l4.373-4.37c0.197-0.202,0.197-0.525,0-0.722
		c-0.207-0.202-0.523-0.202-0.721,0l-4.375,4.37c-0.197,0.207-0.197,0.524,0,0.722C8.338,15.198,8.473,15.253,8.596,15.253z"/>
	<circle cx="14.392" cy="6.016" r="0.741"/>
	<path d="M18.479,0c-0.279,0-0.51,0.226-0.51,0.508v1.513l-2.301,2.297c-0.197,0.202-0.197,0.524,0,0.722
		c0.098,0.099,0.23,0.148,0.365,0.148c0.123,0,0.256-0.049,0.355-0.148l2.598-2.598V0.508C18.986,0.226,18.766,0,18.479,0z"/>
</g></symbol>
<symbol id='education' viewBox='0 0 20 20'><title id="icon-education-title">Education</title>
<path d="M19.72,5.017l-9.656-3.29c-0.086-0.03-0.18-0.029-0.267,0L0.278,5.005C0.113,5.062,0,5.219,0,5.395
  C0,5.57,0.11,5.728,0.275,5.786l2.847,0.998v4.149c0,0.133,0.064,0.259,0.173,0.336c0.112,0.08,2.733,1.934,6.407,1.934
  c0.102,0,0.205-0.002,0.31-0.005c1.507-0.043,2.837-0.344,3.908-0.694c-0.163,0.75-0.354,1.526-0.519,2.193
  c-0.286,1.165-0.437,1.787-0.437,2.075c0,0.99,0.874,1.523,1.697,1.523c1.062,0,1.803-0.641,1.803-1.559
  c0-0.327-0.183-1.112-0.506-2.472c-0.176-0.738-0.373-1.57-0.538-2.35c0.742-0.341,1.183-0.623,1.227-0.653
  c0.116-0.076,0.187-0.206,0.187-0.346V6.795l2.887-0.996c0.167-0.058,0.278-0.215,0.278-0.392C19.999,5.23,19.886,5.074,19.72,5.017
  z M14.662,17.469c-0.351,0-0.87-0.186-0.87-0.697c0-0.201,0.21-1.054,0.412-1.877c0.175-0.708,0.367-1.492,0.53-2.246
  c0.137,0.615,0.285,1.24,0.42,1.808c0.237,0.999,0.483,2.033,0.483,2.28C15.638,17.434,14.825,17.469,14.662,17.469z M9.987,12.371
  c-3.023,0.085-5.396-1.256-6.039-1.661V7.074l5.854,2.052c0.043,0.016,0.09,0.023,0.137,0.023c0.045,0,0.091-0.007,0.134-0.022
  l4.11-1.418c0.104,0.591,0.106,1.623,0.096,2.418c0,0.004,0,0.008,0,0.012c-0.006,0.375-0.072,0.869-0.171,1.418
  C13.033,11.95,11.611,12.325,9.987,12.371z M16.007,10.684c-0.157,0.092-0.415,0.231-0.753,0.393
  c-0.065-0.352-0.116-0.678-0.147-0.957c0.017-1.333-0.022-2.159-0.135-2.683l1.035-0.357V10.684z M14.545,6.709
  c-0.423-0.293-1.509-0.836-4.431-1.859c-0.217-0.076-0.45,0.039-0.526,0.254S9.626,5.555,9.841,5.63
  c1.337,0.468,2.835,1.05,3.666,1.438L9.94,8.299l-8.269-2.9l8.26-2.844l8.38,2.855L14.545,6.709z"/></symbol>
<symbol id='media' viewBox='0 0 20 20'><title id="icon-media-title">Media</title>
<g>
	<path d="M3.803,0.128C3.601-0.055,3.289-0.041,3.105,0.162c-0.082,0.09-2.009,2.25-2.009,5.445c0,3.204,1.846,5.152,1.924,5.233
		c0.097,0.1,0.226,0.15,0.354,0.15c0.123,0,0.245-0.046,0.342-0.137c0.197-0.189,0.203-0.5,0.016-0.697
		c-0.018-0.018-1.648-1.76-1.648-4.549c0-2.797,1.73-4.757,1.754-4.782C4.02,0.623,4.006,0.311,3.803,0.128z"/>
	<path d="M6.36,2.185c-0.212-0.172-0.521-0.141-0.693,0.07c-0.046,0.055-1.098,1.37-1.098,3.299c0,1.938,1.013,3.129,1.056,3.18
		C5.723,8.846,5.86,8.903,5.998,8.903c0.113,0,0.229-0.038,0.322-0.118C6.525,8.607,6.549,8.297,6.373,8.09
		c-0.008-0.01-0.818-0.98-0.818-2.536c0-1.561,0.863-2.658,0.879-2.676C6.604,2.667,6.572,2.357,6.36,2.185z"/>
	<circle cx="9.996" cy="5.528" r="0.718"/>
	<path d="M13.617,2.185c-0.213,0.172-0.244,0.483-0.072,0.694c0.01,0.011,0.876,1.093,0.876,2.675c0,1.555-0.808,2.526-0.815,2.534
		c-0.178,0.206-0.156,0.518,0.051,0.695c0.094,0.082,0.209,0.121,0.323,0.121c0.137,0,0.273-0.059,0.371-0.17
		c0.045-0.051,1.057-1.242,1.057-3.18c0-1.929-1.053-3.244-1.098-3.299C14.138,2.044,13.828,2.013,13.617,2.185z"/>
	<path d="M16.895,0.162c-0.184-0.202-0.495-0.217-0.696-0.034c-0.201,0.182-0.217,0.495-0.035,0.697
		c0.018,0.019,1.753,1.98,1.753,4.782c0,2.79-1.632,4.532-1.647,4.547c-0.188,0.197-0.182,0.508,0.012,0.697
		c0.096,0.093,0.222,0.139,0.345,0.139c0.129,0,0.258-0.051,0.354-0.15c0.081-0.081,1.926-2.029,1.926-5.233
		C18.904,2.412,16.975,0.252,16.895,0.162z"/>
	<path d="M10.002,8.158H9.986c-0.18,0-0.336,0.148-0.34,0.33L9.334,19.67c-0.006,0.18,0.139,0.329,0.322,0.329h0.652
		c0.186,0,0.325-0.146,0.321-0.329L10.34,8.488C10.336,8.309,10.184,8.158,10.002,8.158z"/>
</g></symbol>
</svg>
