<svg version="1.1" id="Ebene_1" xmlns="http://www.w3.org/2000/svg" xmlns:xlink="http://www.w3.org/1999/xlink" x="0px" y="0px"
	 width="20px" height="20px" viewBox="0 0 20 20" enable-background="new 0 0 20 20" xml:space="preserve">
<g>
	<path d="M17.559,6.621c-0.277,0-0.508,0.227-0.508,0.509v3.087L8.496,18.77l-6.252-6.252l8.676-8.68h3.01
		c0.287,0,0.52-0.226,0.52-0.509c0-0.282-0.232-0.508-0.52-0.508h-3.223c-0.125,0-0.26,0.051-0.355,0.148l-9.195,9.183
		c-0.086,0.098-0.143,0.23-0.143,0.366s0.057,0.26,0.143,0.355l6.984,6.975C8.24,19.945,8.363,20,8.496,20
		c0.135,0,0.258-0.055,0.367-0.152l9.051-9.058c0.098-0.097,0.152-0.225,0.152-0.361V7.129C18.066,6.847,17.836,6.621,17.559,6.621z
		"/>
	<path d="M11.137,7.862c-0.197-0.197-0.516-0.197-0.723,0l-4.375,4.38c-0.197,0.197-0.197,0.515,0,0.712
		c0.1,0.108,0.232,0.152,0.365,0.152c0.125,0,0.258-0.044,0.357-0.152l4.375-4.37C11.334,8.387,11.334,8.064,11.137,7.862z"/>
	<path d="M8.596,15.253c0.135,0,0.268-0.055,0.367-0.152l4.373-4.37c0.197-0.202,0.197-0.525,0-0.722
		c-0.207-0.202-0.523-0.202-0.721,0l-4.375,4.37c-0.197,0.207-0.197,0.524,0,0.722C8.338,15.198,8.473,15.253,8.596,15.253z"/>
	<circle cx="14.392" cy="6.016" r="0.741"/>
	<path d="M18.479,0c-0.279,0-0.51,0.226-0.51,0.508v1.513l-2.301,2.297c-0.197,0.202-0.197,0.524,0,0.722
		c0.098,0.099,0.23,0.148,0.365,0.148c0.123,0,0.256-0.049,0.355-0.148l2.598-2.598V0.508C18.986,0.226,18.766,0,18.479,0z"/>
</g>
</svg>
