<svg version="1.1" id="Ebene_1" xmlns="http://www.w3.org/2000/svg" xmlns:xlink="http://www.w3.org/1999/xlink" x="0px" y="0px"
   width="20px" height="20px" viewBox="0 0 20 20" enable-background="new 0 0 20 20" xml:space="preserve">
<path d="M19.72,5.017l-9.656-3.29c-0.086-0.03-0.18-0.029-0.267,0L0.278,5.005C0.113,5.062,0,5.219,0,5.395
  C0,5.57,0.11,5.728,0.275,5.786l2.847,0.998v4.149c0,0.133,0.064,0.259,0.173,0.336c0.112,0.08,2.733,1.934,6.407,1.934
  c0.102,0,0.205-0.002,0.31-0.005c1.507-0.043,2.837-0.344,3.908-0.694c-0.163,0.75-0.354,1.526-0.519,2.193
  c-0.286,1.165-0.437,1.787-0.437,2.075c0,0.99,0.874,1.523,1.697,1.523c1.062,0,1.803-0.641,1.803-1.559
  c0-0.327-0.183-1.112-0.506-2.472c-0.176-0.738-0.373-1.57-0.538-2.35c0.742-0.341,1.183-0.623,1.227-0.653
  c0.116-0.076,0.187-0.206,0.187-0.346V6.795l2.887-0.996c0.167-0.058,0.278-0.215,0.278-0.392C19.999,5.23,19.886,5.074,19.72,5.017
  z M14.662,17.469c-0.351,0-0.87-0.186-0.87-0.697c0-0.201,0.21-1.054,0.412-1.877c0.175-0.708,0.367-1.492,0.53-2.246
  c0.137,0.615,0.285,1.24,0.42,1.808c0.237,0.999,0.483,2.033,0.483,2.28C15.638,17.434,14.825,17.469,14.662,17.469z M9.987,12.371
  c-3.023,0.085-5.396-1.256-6.039-1.661V7.074l5.854,2.052c0.043,0.016,0.09,0.023,0.137,0.023c0.045,0,0.091-0.007,0.134-0.022
  l4.11-1.418c0.104,0.591,0.106,1.623,0.096,2.418c0,0.004,0,0.008,0,0.012c-0.006,0.375-0.072,0.869-0.171,1.418
  C13.033,11.95,11.611,12.325,9.987,12.371z M16.007,10.684c-0.157,0.092-0.415,0.231-0.753,0.393
  c-0.065-0.352-0.116-0.678-0.147-0.957c0.017-1.333-0.022-2.159-0.135-2.683l1.035-0.357V10.684z M14.545,6.709
  c-0.423-0.293-1.509-0.836-4.431-1.859c-0.217-0.076-0.45,0.039-0.526,0.254S9.626,5.555,9.841,5.63
  c1.337,0.468,2.835,1.05,3.666,1.438L9.94,8.299l-8.269-2.9l8.26-2.844l8.38,2.855L14.545,6.709z"/>
</svg>
