<svg version="1.1" id="Ebene_1" xmlns="http://www.w3.org/2000/svg" xmlns:xlink="http://www.w3.org/1999/xlink" x="0px" y="0px"
	 width="20px" height="20px" viewBox="0 0 20 20" enable-background="new 0 0 20 20" xml:space="preserve">
<g>
	<path d="M3.803,0.128C3.601-0.055,3.289-0.041,3.105,0.162c-0.082,0.09-2.009,2.25-2.009,5.445c0,3.204,1.846,5.152,1.924,5.233
		c0.097,0.1,0.226,0.15,0.354,0.15c0.123,0,0.245-0.046,0.342-0.137c0.197-0.189,0.203-0.5,0.016-0.697
		c-0.018-0.018-1.648-1.76-1.648-4.549c0-2.797,1.73-4.757,1.754-4.782C4.02,0.623,4.006,0.311,3.803,0.128z"/>
	<path d="M6.36,2.185c-0.212-0.172-0.521-0.141-0.693,0.07c-0.046,0.055-1.098,1.37-1.098,3.299c0,1.938,1.013,3.129,1.056,3.18
		C5.723,8.846,5.86,8.903,5.998,8.903c0.113,0,0.229-0.038,0.322-0.118C6.525,8.607,6.549,8.297,6.373,8.09
		c-0.008-0.01-0.818-0.98-0.818-2.536c0-1.561,0.863-2.658,0.879-2.676C6.604,2.667,6.572,2.357,6.36,2.185z"/>
	<circle cx="9.996" cy="5.528" r="0.718"/>
	<path d="M13.617,2.185c-0.213,0.172-0.244,0.483-0.072,0.694c0.01,0.011,0.876,1.093,0.876,2.675c0,1.555-0.808,2.526-0.815,2.534
		c-0.178,0.206-0.156,0.518,0.051,0.695c0.094,0.082,0.209,0.121,0.323,0.121c0.137,0,0.273-0.059,0.371-0.17
		c0.045-0.051,1.057-1.242,1.057-3.18c0-1.929-1.053-3.244-1.098-3.299C14.138,2.044,13.828,2.013,13.617,2.185z"/>
	<path d="M16.895,0.162c-0.184-0.202-0.495-0.217-0.696-0.034c-0.201,0.182-0.217,0.495-0.035,0.697
		c0.018,0.019,1.753,1.98,1.753,4.782c0,2.79-1.632,4.532-1.647,4.547c-0.188,0.197-0.182,0.508,0.012,0.697
		c0.096,0.093,0.222,0.139,0.345,0.139c0.129,0,0.258-0.051,0.354-0.15c0.081-0.081,1.926-2.029,1.926-5.233
		C18.904,2.412,16.975,0.252,16.895,0.162z"/>
	<path d="M10.002,8.158H9.986c-0.18,0-0.336,0.148-0.34,0.33L9.334,19.67c-0.006,0.18,0.139,0.329,0.322,0.329h0.652
		c0.186,0,0.325-0.146,0.321-0.329L10.34,8.488C10.336,8.309,10.184,8.158,10.002,8.158z"/>
</g>
</svg>
